# xmcd CD database file
#
# Track frame offsets:
#	150
#	14677
#	28152
#	45399
#	56797
#	66757
#	88290
#	101200
#	119589
#	125381
#	131196
#	151875
#	164055
#	176540
#	187338
#	201218
#	217493
#	225157
#	234590
#	247367
#	264339
#
# Disc length: 3737 seconds
#
# Revision: 0
# Processed by: cddbd v1.5.2PL0 Copyright (c) Steve Scherf et al.
# Submitted via: CDex 1.70beta2
#
DISCID=4a0e9715
DTITLE=Memphis Slim - Flip, fil and fim
DYEAR=2009
DGENRE=Blues
TTITLE0=Flip, fil and fim
TTITLE1=Christina
TTITLE2=Zorba the freak
TTITLE3=Movin'on
TTITLE4=Down in Alabama
TTITLE5=Keep the Blues alive
TTITLE6=Violin boogie
TTITLE7=Sassy Mae
TTITLE8=All by myself
TTITLE9=Bye Bye Bye Blues
TTITLE10=That's where I'm coming from
TTITLE11=Call me the boogie man
TTITLE12=1040 form blues
TTITLE13=You'll soon be singing the blues?
TTITLE14=He flew the coop
TTITLE15=Going back to Memphis
TTITLE16=Do you think I've got the blues
TTITLE17=Fore day train
TTITLE18=Shaking that thing
TTITLE19=Early in the morning
TTITLE20=Memphis blues
EXTD=YEAR: 2009
EXTT0=
EXTT1=
EXTT2=
EXTT3=
EXTT4=
EXTT5=
EXTT6=
EXTT7=
EXTT8=
EXTT9=
EXTT10=
EXTT11=
EXTT12=
EXTT13=
EXTT14=
EXTT15=
EXTT16=
EXTT17=
EXTT18=
EXTT19=
EXTT20=
PLAYORDER=
